<?xml version="1.0" encoding="UTF-8" standalone="no"?>
<svg
   xmlns:ooo="http://xml.openoffice.org/svg/export"
   xmlns:dc="http://purl.org/dc/elements/1.1/"
   xmlns:cc="http://creativecommons.org/ns#"
   xmlns:rdf="http://www.w3.org/1999/02/22-rdf-syntax-ns#"
   xmlns:svg="http://www.w3.org/2000/svg"
   xmlns="http://www.w3.org/2000/svg"
   xmlns:sodipodi="http://sodipodi.sourceforge.net/DTD/sodipodi-0.dtd"
   xmlns:inkscape="http://www.inkscape.org/namespaces/inkscape"
   version="1.2"
   width="477"
   height="162.46063"
   viewBox="0 0 13462 4585.0001"
   preserveAspectRatio="xMidYMid"
   clip-path="url(#presentation_clip_path)"
   xml:space="preserve"
   id="svg2"
   inkscape:version="0.48.4 r9939"
   sodipodi:docname="spinna.svg"
   style="fill-rule:evenodd;stroke-width:28.22200012;stroke-linejoin:round"><metadata
     id="metadata83"><rdf:RDF><cc:Work
         rdf:about=""><dc:format>image/svg+xml</dc:format><dc:type
           rdf:resource="http://purl.org/dc/dcmitype/StillImage" /><dc:title></dc:title></cc:Work></rdf:RDF></metadata><sodipodi:namedview
     pagecolor="#ffffff"
     bordercolor="#666666"
     borderopacity="1"
     objecttolerance="10"
     gridtolerance="10"
     guidetolerance="10"
     inkscape:pageopacity="0"
     inkscape:pageshadow="2"
     inkscape:window-width="976"
     inkscape:window-height="796"
     id="namedview81"
     showgrid="false"
     fit-margin-top="0"
     fit-margin-left="0"
     fit-margin-right="0"
     fit-margin-bottom="0"
     inkscape:zoom="0.95353535"
     inkscape:cx="201.14441"
     inkscape:cy="164.97941"
     inkscape:window-x="0"
     inkscape:window-y="0"
     inkscape:window-maximized="0"
     inkscape:current-layer="svg2" /><defs
     class="ClipPathGroup"
     id="defs4"><clipPath
       id="presentation_clip_path"
       clipPathUnits="userSpaceOnUse"><rect
         x="0"
         y="0"
         width="21590"
         height="27940"
         id="rect7" /></clipPath></defs><defs
     class="TextShapeIndex"
     id="defs9"><g
       ooo:slide="id1"
       ooo:id-list="id3 id4 id5 id6 id7"
       id="g11" /></defs><defs
     class="EmbeddedBulletChars"
     id="defs13"><g
       id="bullet-char-template(57356)"
       transform="scale(4.8828125e-4,-4.8828125e-4)"><path
         d="M 580,1141 1163,571 580,0 -4,571 580,1141 z"
         id="path16"
         inkscape:connector-curvature="0" /></g><g
       id="bullet-char-template(57354)"
       transform="scale(4.8828125e-4,-4.8828125e-4)"><path
         d="m 8,1128 1129,0 L 1137,0 8,0 8,1128 z"
         id="path19"
         inkscape:connector-curvature="0" /></g><g
       id="bullet-char-template(10146)"
       transform="scale(4.8828125e-4,-4.8828125e-4)"><path
         d="M 174,0 602,739 174,1481 1456,739 174,0 z m 1184,739 -1049,607 350,-607 699,0 z"
         id="path22"
         inkscape:connector-curvature="0" /></g><g
       id="bullet-char-template(10132)"
       transform="scale(4.8828125e-4,-4.8828125e-4)"><path
         d="M 2015,739 1276,0 717,0 l 543,543 -1086,0 0,393 1086,0 -543,545 557,0 741,-742 z"
         id="path25"
         inkscape:connector-curvature="0" /></g><g
       id="bullet-char-template(10007)"
       transform="scale(4.8828125e-4,-4.8828125e-4)"><path
         d="m 0,-2 c -7,16 -16,29 -25,39 l 381,530 c -94,256 -141,385 -141,387 0,25 13,38 40,38 9,0 21,-2 34,-5 21,4 42,12 65,25 l 27,-13 111,-251 280,301 64,-25 24,25 c 21,-10 41,-24 62,-43 C 886,937 835,863 770,784 769,783 710,716 594,584 L 774,223 c 0,-27 -21,-55 -63,-84 l 16,-20 C 717,90 699,76 672,76 641,76 570,178 457,381 L 164,-76 c -22,-34 -53,-51 -92,-51 -42,0 -63,17 -64,51 -7,9 -10,24 -10,44 0,9 1,19 2,30 z"
         id="path28"
         inkscape:connector-curvature="0" /></g><g
       id="bullet-char-template(10004)"
       transform="scale(4.8828125e-4,-4.8828125e-4)"><path
         d="M 285,-33 C 182,-33 111,30 74,156 52,228 41,333 41,471 c 0,78 14,145 41,201 34,71 87,106 158,106 53,0 88,-31 106,-94 l 23,-176 c 8,-64 28,-97 59,-98 l 735,706 c 11,11 33,17 66,17 42,0 63,-15 63,-46 l 0,-122 c 0,-36 -10,-64 -30,-84 L 442,47 C 390,-6 338,-33 285,-33 z"
         id="path31"
         inkscape:connector-curvature="0" /></g><g
       id="bullet-char-template(9679)"
       transform="scale(4.8828125e-4,-4.8828125e-4)"><path
         d="M 813,0 C 632,0 489,54 383,161 276,268 223,411 223,592 c 0,181 53,324 160,431 106,107 249,161 430,161 179,0 323,-54 432,-161 108,-107 162,-251 162,-431 0,-180 -54,-324 -162,-431 C 1136,54 992,0 813,0 z"
         id="path34"
         inkscape:connector-curvature="0" /></g><g
       id="bullet-char-template(8226)"
       transform="scale(4.8828125e-4,-4.8828125e-4)"><path
         d="m 346,457 c -73,0 -137,26 -191,78 -54,51 -81,114 -81,188 0,73 27,136 81,188 54,52 118,78 191,78 73,0 134,-26 185,-79 51,-51 77,-114 77,-187 0,-75 -25,-137 -76,-188 -50,-52 -112,-78 -186,-78 z"
         id="path37"
         inkscape:connector-curvature="0" /></g><g
       id="bullet-char-template(8211)"
       transform="scale(4.8828125e-4,-4.8828125e-4)"><path
         d="m -4,459 1139,0 0,147 -1139,0 0,-147 z"
         id="path40"
         inkscape:connector-curvature="0" /></g></defs><defs
     class="TextEmbeddedBitmaps"
     id="defs42" /><g
     id="g44"
     transform="translate(-3921,-11955)"><g
       id="id2"
       class="Master_Slide"><g
         id="bg-id2"
         class="Background" /><g
         id="bo-id2"
         class="BackgroundObjects" /></g></g><g
     class="SlideGroup"
     id="g49"
     transform="translate(-3921,-11955)"><g
       id="g51"><g
         id="id1"
         class="Slide"
         clip-path="url(#presentation_clip_path)"><g
           class="Page"
           id="g54"><g
             class="com.sun.star.drawing.CustomShape"
             id="g56"><g
               id="id3"><path
                 d="m 5642,14859 88,12 48,372 7,13 7,14 8,15 9,14 9,13 10,15 11,13 11,14 23,28 25,26 27,27 27,25 28,24 30,22 31,23 31,19 31,18 30,15 30,12 30,11 26,7 24,4 24,3 23,2 22,0 21,-3 20,-4 19,-6 19,-8 17,-8 18,-11 16,-10 15,-13 15,-15 13,-15 13,-17 12,-19 11,-21 11,-21 9,-22 9,-24 8,-25 7,-26 7,-28 6,-28 5,-30 4,-30 4,-30 2,-33 1,-32 2,-34 0,-35 -1,-43 -2,-40 -2,-39 -4,-38 -6,-35 -7,-34 -9,-32 -10,-30 -10,-28 -12,-29 -13,-27 -12,-24 -15,-24 -14,-23 -16,-21 -17,-21 -35,-39 -37,-35 -39,-32 -41,-29 -176,-106 -88,-54 -44,-27 -44,-29 -21,-15 -21,-16 -19,-16 -20,-18 -19,-18 -18,-19 -17,-20 -18,-21 -16,-21 -16,-24 -14,-23 -14,-25 -13,-27 -12,-27 -12,-29 -11,-31 -9,-31 -9,-33 -7,-35 -6,-37 -5,-38 -3,-41 -2,-42 0,-44 0,-38 2,-37 3,-37 4,-36 6,-35 8,-34 8,-34 9,-35 11,-33 12,-33 13,-32 15,-31 16,-31 16,-29 18,-30 19,-28 21,-28 21,-27 22,-27 24,-25 24,-24 26,-24 27,-23 28,-23 29,-21 30,-19 31,-20 32,-18 34,-15 34,-16 72,-27 66,-20 64,-14 63,-12 62,-7 116,-2 54,0 53,5 0,690 -89,16 -48,-388 -15,-15 -16,-13 -17,-12 -18,-13 -18,-10 -20,-8 -20,-8 -22,-8 -22,-5 -22,-4 -24,-2 -24,1 -25,2 -26,4 -26,4 -26,8 -49,15 -22,10 -23,9 -21,11 -21,12 -19,14 -19,13 -17,14 -18,14 -15,15 -16,15 -14,16 -14,17 -14,18 -11,16 -12,18 -11,18 -9,19 -10,19 -9,20 -7,20 -8,19 -5,21 -6,21 -4,21 -5,21 -3,21 -3,21 -1,23 -2,21 0,22 1,32 2,31 3,31 5,27 6,26 7,25 8,23 10,22 11,21 12,20 11,18 14,19 13,17 15,16 16,15 16,15 35,28 37,27 40,23 42,22 176,91 45,26 45,28 44,30 43,32 22,17 20,20 20,20 19,20 20,24 17,24 18,25 17,28 17,28 15,32 15,32 14,34 13,34 13,38 11,40 11,40 10,44 9,43 6,49 6,50 4,52 3,55 2,56 1,60 -1,57 -1,58 -3,54 -5,53 -5,51 -6,49 -8,47 -9,47 -11,42 -11,42 -13,40 -14,38 -15,35 -17,33 -17,30 -19,29 -20,26 -22,23 -22,21 -24,19 -25,17 -26,12 -28,12 -28,8 -31,6 -31,5 -33,1 -33,-2 -36,-5 -36,-6 -38,-10 -39,-12 -42,-15 -42,-15 -40,-18 -41,-18 -79,-41 -38,-21 -37,-22 -35,-21 -34,-23 -32,-21 -31,-23 -30,-22 -28,-21 -25,-20 -24,-20 0,-605 z m 2545,-1441 -2,-118 -2,-56 -2,-52 -4,-52 -4,-50 -5,-45 -6,-44 -7,-43 -7,-40 -9,-38 -9,-35 -10,-33 -12,-31 -12,-28 -13,-28 -13,-26 -16,-23 -16,-20 -18,-18 -19,-16 -19,-14 -21,-13 -22,-8 -23,-9 -24,-6 -26,-3 -26,-4 -58,3 -63,8 -73,15 0,0 -63,14 0,1798 63,1 0,0 81,1 63,-3 30,-3 28,-8 27,-8 25,-11 24,-14 23,-15 22,-16 20,-19 19,-22 19,-23 17,-26 16,-26 15,-30 14,-30 12,-33 12,-35 11,-37 10,-37 9,-41 8,-42 7,-43 6,-46 5,-48 5,-48 4,-51 3,-52 5,-107 1,-113 z m -604,1241 0,1263 63,31 0,0 233,109 0,156 -233,-52 0,0 -548,-145 0,-140 219,-21 0,-3224 -237,-12 0,-140 566,-151 0,0 133,-30 94,-15 44,-4 42,1 40,4 38,7 36,11 33,15 32,17 31,19 29,22 27,25 26,30 16,19 0,0 8,12 22,34 22,37 19,39 18,42 16,44 15,44 13,48 12,49 11,52 9,55 8,55 7,57 6,58 5,59 3,61 3,62 1,62 1,65 -1,63 -1,65 -3,60 -3,63 -5,60 -6,63 -7,58 -8,61 -9,58 -10,56 -12,56 -13,53 -14,52 -16,48 -17,47 -19,46 -21,44 -22,42 -12,15 0,2 -12,20 -25,37 -26,34 -29,32 -30,27 -31,27 -32,25 -36,20 -37,16 -39,13 -42,9 -43,6 -45,2 -47,0 -147,-7 0,0 -63,-3 z m 1616,1531 243,118 0,177 -567,-73 0,0 -191,-33 0,-169 191,-41 0,-2 52,-8 0,-3823 -52,-13 0,0 -191,-36 0,-166 191,-34 0,0 567,-73 0,175 -243,116 0,3885 z m 1993,-3960 -257,-96 0,-179 358,9 0,0 294,22 0,177 -245,73 0,4295 -49,4 0,0 -89,2 -519,-1806 0,0 -608,-2119 0,0 -54,-185 0,3830 54,23 0,0 203,78 0,182 -203,-5 0,0 -449,-34 0,-179 245,-75 0,-4000 -245,-73 0,-176 449,-34 0,0 129,-3 479,1643 0,0 507,1746 0,-3120 z m 2091,242 -180,-95 0,0 -71,-34 0,-161 71,13 0,0 566,127 0,151 -240,28 0,3731 -135,30 -191,-570 0,-3 -608,-1960 0,0 -363,-1245 0,3710 255,60 0,172 -493,63 0,0 -156,12 0,-178 156,-71 0,-2 88,-39 0,-3928 -88,-43 0,0 -156,-66 0,-176 156,12 0,0 419,54 182,620 0,0 608,1983 0,3 180,550 0,-2748 z m 1087,3387 0,138 -5,1 0,0 -603,160 0,-151 210,-126 393,-2166 0,-5 232,-1157 258,84 646,2835 231,-11 0,104 -770,244 0,-123 244,-132 -181,-836 -660,63 0,0 -58,5 -185,1060 243,12 0,0 5,1 z m 292,-2932 -297,1524 0,5 -16,91 16,-1 0,0 618,-32 -321,-1587 z"
                 id="path59"
                 inkscape:connector-curvature="0"
                 style="fill:#0093d9;stroke:none" /></g></g><g
             class="com.sun.star.drawing.CustomShape"
             id="g61"><g
               id="id4"><path
                 d="m 4746,14576 -572,0 0,-635 1143,0 0,635 -571,0 z"
                 id="path64"
                 inkscape:connector-curvature="0"
                 style="fill:#0093d9;stroke:none" /></g></g><g
             class="com.sun.star.drawing.CustomShape"
             id="g66"><g
               id="id5"><path
                 d="m 4072,13941 c -76,0 -151,75 -151,151 l 0,333 c 0,76 75,152 151,152 l 969,0 c 75,0 151,-76 151,-152 l 0,-333 c 0,-76 -76,-151 -151,-151 l -969,0 z m -151,0 0,0 z m 1271,636 0,0 z"
                 id="path69"
                 inkscape:connector-curvature="0"
                 style="fill:#0093d9;stroke:none" /></g></g><g
             class="com.sun.star.drawing.CustomShape"
             id="g71"><g
               id="id6"><path
                 d="m 16558,14576 -572,0 0,-635 1143,0 0,635 -571,0 z"
                 id="path74"
                 inkscape:connector-curvature="0"
                 style="fill:#0093d9;stroke:none" /></g></g><g
             class="com.sun.star.drawing.CustomShape"
             id="g76"><g
               id="id7"><path
                 d="m 17232,13941 c 76,0 151,75 151,151 l 0,333 c 0,76 -75,152 -151,152 l -969,0 c -75,0 -151,-76 -151,-152 l 0,-333 c 0,-76 76,-151 151,-151 l 969,0 z m 151,0 0,0 z m -1271,636 0,0 z"
                 id="path79"
                 inkscape:connector-curvature="0"
                 style="fill:#0093d9;stroke:none" /></g></g></g></g></g></g></svg>